<?xml version="1.0" standalone="no"?>
<!DOCTYPE svg PUBLIC "-//W3C//DTD SVG 20010904//EN"
 "http://www.w3.org/TR/2001/REC-SVG-20010904/DTD/svg10.dtd">
<svg version="1.0" xmlns="http://www.w3.org/2000/svg"
 width="1024.000000pt" height="1024.000000pt" viewBox="0 0 1024.000000 1024.000000"
 preserveAspectRatio="xMidYMid meet">
<metadata>
Created by potrace 1.11, written by Peter Selinger 2001-2013
</metadata>
<g transform="translate(0.000000,1024.000000) scale(0.100000,-0.100000)"
fill="#000000" stroke="none">
<path d="M3256 10204 c-21 -8 -54 -23 -73 -35 -30 -19 -40 -20 -67 -11 -149
52 -274 44 -362 -23 -29 -22 -42 -25 -120 -25 -103 0 -143 -12 -203 -59 -44
-34 -46 -35 -145 -36 -56 -1 -117 -5 -136 -9 -64 -15 -145 -57 -190 -101 l-45
-43 -90 -4 c-139 -8 -213 -50 -256 -145 -31 -67 -28 -151 8 -235 16 -37 15
-38 -21 -107 -55 -106 -50 -189 20 -292 34 -51 35 -55 23 -96 -25 -91 1 -182
83 -292 39 -52 41 -56 42 -135 1 -63 6 -92 24 -128 23 -47 84 -117 118 -136
12 -7 18 -25 21 -63 6 -108 76 -210 205 -301 48 -34 60 -48 74 -92 9 -28 23
-63 30 -77 33 -66 126 -135 230 -169 60 -20 63 -23 79 -69 36 -98 121 -159
283 -201 l43 -11 -88 -55 c-165 -104 -248 -169 -369 -289 -296 -295 -430 -634
-448 -1136 -4 -96 -7 -110 -37 -168 -25 -46 -47 -72 -84 -97 -122 -82 -259
-224 -354 -366 -124 -186 -231 -441 -256 -612 -3 -21 -7 -41 -9 -45 -8 -12
-19 -166 -19 -251 0 -294 87 -584 250 -829 60 -89 67 -99 120 -159 25 -30 37
-60 63 -166 35 -143 51 -195 133 -426 30 -85 60 -182 65 -215 19 -103 22 -118
44 -195 28 -103 70 -208 127 -316 42 -79 115 -199 131 -214 3 -3 30 -36 61
-75 149 -186 368 -362 578 -464 46 -23 90 -41 96 -41 7 0 66 -39 131 -87 293
-214 549 -360 813 -462 90 -35 111 -48 170 -105 381 -369 861 -540 1380 -491
91 9 283 52 361 82 36 13 74 27 85 30 21 7 176 85 235 120 100 58 195 131 330
255 66 60 91 75 186 113 126 51 314 143 421 207 172 102 206 124 348 228 82
61 157 110 165 110 38 1 343 176 380 219 3 3 28 24 55 46 123 97 264 257 367
416 72 110 182 368 202 470 2 13 9 47 16 74 6 28 14 68 17 90 3 22 37 128 75
235 59 167 118 364 133 443 12 60 17 76 33 93 10 11 38 46 63 79 173 228 263
436 314 725 11 60 13 322 4 380 -5 30 -12 75 -15 100 -3 25 -10 54 -14 65 -4
11 -8 23 -9 28 -6 45 -50 188 -62 202 -5 5 -9 15 -9 23 0 17 -89 198 -129 263
-97 157 -253 327 -373 409 -54 37 -72 57 -101 110 -33 62 -35 71 -41 195 -3
72 -8 153 -12 180 -16 137 -82 406 -105 430 -5 5 -9 15 -9 23 0 21 -86 187
-132 256 -133 199 -326 370 -624 553 -16 9 -16 12 -4 16 184 55 245 91 290
171 17 28 30 58 30 67 0 11 18 22 52 34 85 27 133 54 181 98 46 42 97 128 97
163 0 26 9 36 63 73 125 85 205 200 213 303 3 48 8 56 44 86 86 72 131 175
123 279 -5 49 -2 56 32 95 49 58 96 156 99 209 1 24 -3 64 -10 88 -12 42 -12
46 18 88 42 63 67 139 62 193 -2 25 -19 76 -39 114 -32 64 -33 70 -20 96 50
96 36 238 -29 303 -64 64 -133 88 -250 88 -55 0 -61 2 -95 38 -75 78 -176 113
-331 115 -102 2 -107 3 -138 31 -54 49 -100 63 -200 63 -79 0 -94 3 -128 26
-95 62 -200 74 -328 36 -74 -22 -75 -22 -103 -3 -88 61 -168 62 -309 5 -100
-39 -102 -40 -156 -27 -89 20 -147 11 -244 -39 -67 -34 -92 -42 -113 -37 -14
4 -57 6 -95 5 -91 -4 -153 -35 -238 -119 -37 -36 -72 -65 -80 -66 -7 0 -37 0
-66 1 -47 1 -61 -3 -110 -36 -77 -51 -208 -175 -250 -236 -9 -13 -19 -25 -23
-28 -3 -3 -30 -41 -59 -85 -65 -101 -149 -272 -191 -394 l-32 -93 -27 78
c-111 321 -298 595 -514 748 -61 44 -67 46 -133 46 l-69 0 -61 59 c-97 95
-149 121 -249 126 -23 1 -59 -1 -80 -5 -34 -5 -51 0 -124 37 -96 50 -157 59
-249 37 -55 -12 -57 -12 -136 22 -119 50 -185 60 -249 38z"/>
</g>
</svg>
